<?xml version="1.0" encoding="utf-8"?>
<!-- Generator: Adobe Illustrator 23.1.0, SVG Export Plug-In . SVG Version: 6.00 Build 0)  -->
<svg version="1.1" xmlns="http://www.w3.org/2000/svg" xmlns:xlink="http://www.w3.org/1999/xlink" x="0px" y="0px"
	 viewBox="0 0 500 168" style="enable-background:new 0 0 500 168;" xml:space="preserve">
<style type="text/css">
	.st0{fill:url(#SVGID_1_);}
	.st1{fill:#7A7A7A;}
</style>
<g id="Layer_1">
	<g>
		<linearGradient id="SVGID_1_" gradientUnits="userSpaceOnUse" x1="21" y1="84" x2="155" y2="84">
			<stop  offset="0" style="stop-color:#F15A24"/>
			<stop  offset="1" style="stop-color:#9E005D"/>
		</linearGradient>
		<circle class="st0" cx="88" cy="84" r="67"/>
	</g>
	
		<image style="overflow:visible;" width="512" height="512" xlink:href="../../../../../Downloads/dove (1).png"  transform="matrix(0.1746 -2.010155e-02 2.010155e-02 0.1746 38.1494 42.4413)">
	</image>
</g>
<g id="Layer_2">
</g>
<g id="Layer_3">
	<g>
		<g>
			<path d="M172.5,65.2h6.2v14.6h10.2l-0.7,4.4h-15.7V65.2z"/>
			<path d="M196.4,80.7l-1.2,3.5H189l7.2-19h8l7.7,19h-6.6l-1.3-3.5H196.4z M202.6,76.3c-1.2-3.4-2-5.6-2.4-7.2H200
				c-0.4,1.6-1.3,4.3-2.3,7.2H202.6z"/>
			<path d="M220,77.2v7H214v-19h11.5c4.7,0,7.2,2.3,7.2,5.5c0,2.4-1.4,3.9-3.3,4.5c1,0.4,2.8,1.3,2.8,4.6v1c0,1.1,0,2.5,0.3,3.4
				h-6.1c-0.3-0.8-0.4-2-0.4-3.9v-0.6c0-1.8-0.6-2.4-3-2.4H220z M220,73.3h3.8c1.7,0,2.6-0.6,2.6-2c0-1.3-0.9-2-2.6-2H220V73.3z"/>
			<path d="M242.1,77.2v7H236v-19h11.5c4.7,0,7.2,2.3,7.2,5.5c0,2.4-1.4,3.9-3.3,4.5c1,0.4,2.8,1.3,2.8,4.6v1c0,1.1,0,2.5,0.3,3.4
				h-6.1c-0.3-0.8-0.4-2-0.4-3.9v-0.6c0-1.8-0.6-2.4-3-2.4H242.1z M242.1,73.3h3.8c1.7,0,2.6-0.6,2.6-2c0-1.3-0.9-2-2.6-2h-3.8V73.3
				z"/>
			<path d="M262.8,84.2v-6.6c0-0.3-0.1-0.5-0.3-0.7l-7.6-11.7h7.2c1.5,2.7,3.1,5.6,4,7.6c0.9-1.9,2.6-4.8,4.1-7.6h6.6l-7.8,11.8
				c-0.1,0.2-0.1,0.3-0.1,0.7v6.5H262.8z"/>
			<path d="M301.4,76.7h-10.1v3.2h11.3l-0.7,4.4h-16.7v-19h16.8v4.4h-10.7v2.6h10.1V76.7z"/>
			<path d="M305.5,65.2h6.2v14.6h10.2l-0.7,4.4h-15.7V65.2z"/>
			<path d="M324.5,65.2h6.2v14.6h10.2l-0.7,4.4h-15.7V65.2z"/>
			<path d="M359.6,76.7h-10.1v3.2h11.3l-0.7,4.4h-16.7v-19h16.8v4.4h-10.7v2.6h10.1V76.7z"/>
			<path d="M369.9,77.2v7h-6.1v-19h11.5c4.7,0,7.2,2.3,7.2,5.5c0,2.4-1.4,3.9-3.3,4.5c1,0.4,2.8,1.3,2.8,4.6v1c0,1.1,0,2.5,0.3,3.4
				h-6.1c-0.3-0.8-0.4-2-0.4-3.9v-0.6c0-1.8-0.6-2.4-3-2.4H369.9z M369.9,73.3h3.8c1.7,0,2.6-0.6,2.6-2c0-1.3-0.9-2-2.6-2h-3.8V73.3
				z"/>
			<path d="M385.8,65.2h11.7c4.8,0,6.9,2.3,6.9,4.9c0,2.2-1.4,3.5-3,4c1.9,0.6,3.7,2,3.7,4.4c0,3.3-2.4,5.6-7.7,5.6h-11.6V65.2z
				 M396,72.5c1.7,0,2.2-0.8,2.2-1.7c0-1.1-0.8-1.7-2.2-1.7h-4.2v3.3H396z M391.9,80.3h4.3c1.6,0,2.6-0.6,2.6-2
				c0-1.2-0.7-1.9-2.5-1.9h-4.4V80.3z"/>
			<path d="M424.6,76.7h-10.1v3.2h11.3l-0.7,4.4h-16.7v-19h16.8v4.4h-10.7v2.6h10.1V76.7z"/>
			<path d="M445,76.7h-10.1v3.2h11.3l-0.7,4.4h-16.7v-19h16.8v4.4h-10.7v2.6H445V76.7z"/>
		</g>
	</g>
	<rect x="224" y="99" class="st1" width="183" height="1"/>
</g>
<g id="Layer_4">
	<g>
		<g>
			<path d="M235.1,116.9l-1.2,3.2h-1l3.5-9.8h1.2l3.7,9.8h-1.1l-1.2-3.2H235.1z M238.9,116c-1-2.8-1.6-4.1-1.8-4.8h0
				c-0.2,0.8-0.8,2.5-1.7,4.8H238.9z"/>
			<path d="M260.8,110.3v5.9c0,2.5,1.4,3.1,2.7,3.1c1.6,0,2.7-0.7,2.7-3.1v-5.9h1v5.9c0,3.1-1.7,4-3.7,4c-2,0-3.7-1-3.7-3.9v-6
				H260.8z"/>
			<path d="M288.6,111.2h-3.2v-0.9h7.5v0.9h-3.2v8.9h-1V111.2z"/>
			<path d="M311.1,110.3h1v4.2h5.5v-4.2h1v9.8h-1v-4.7h-5.5v4.7h-1V110.3z"/>
			<path d="M346.4,115.1c0,2.7-1.5,5.1-4.5,5.1c-2.8,0-4.4-2.2-4.4-5c0-2.8,1.6-5,4.5-5C344.7,110.2,346.4,112.3,346.4,115.1z
				 M338.5,115.2c0,2.2,1.2,4.2,3.4,4.2c2.4,0,3.4-2,3.4-4.2c0-2.2-1.1-4.1-3.4-4.1C339.6,111.1,338.5,113,338.5,115.2z"/>
			<path d="M366.3,115.6v4.5h-1v-9.8h3.6c2,0,3,1.1,3,2.6c0,1.3-0.7,2-1.8,2.3c0.9,0.2,1.6,0.9,1.6,2.5v0.4c0,0.7,0,1.6,0.1,2h-1
				c-0.2-0.4-0.2-1.2-0.2-2.1v-0.2c0-1.5-0.4-2.2-2.3-2.2H366.3z M366.3,114.8h2.3c1.6,0,2.4-0.6,2.4-1.8c0-1.1-0.7-1.8-2.2-1.8
				h-2.4V114.8z"/>
		</g>
	</g>
</g>
</svg>
